<mxfile host="app.diagrams.net" agent="Mozilla/5.0 (X11; Linux x86_64) AppleWebKit/537.36 (KHTML, like Gecko) Chrome/135.0.0.0 Safari/537.36" version="26.2.9">
  <diagram name="Page-1" id="7-Z28FwNFhKdIKEKukWa">
    <mxGraphModel dx="2040" dy="1084" grid="1" gridSize="10" guides="1" tooltips="1" connect="1" arrows="1" fold="1" page="1" pageScale="1" pageWidth="3300" pageHeight="4681" math="0" shadow="1">
      <root>
        <mxCell id="0" />
        <mxCell id="1" parent="0" />
        <mxCell id="FyBR0PGWzK8Zohx24WY4-28" value="START" style="ellipse;whiteSpace=wrap;html=1;" vertex="1" parent="1">
          <mxGeometry x="1539" y="78" width="120" height="80" as="geometry" />
        </mxCell>
        <mxCell id="FyBR0PGWzK8Zohx24WY4-29" value="" style="endArrow=classic;html=1;rounded=0;exitX=0.5;exitY=1;exitDx=0;exitDy=0;" edge="1" parent="1" source="FyBR0PGWzK8Zohx24WY4-28">
          <mxGeometry width="50" height="50" relative="1" as="geometry">
            <mxPoint x="1589" y="338" as="sourcePoint" />
            <mxPoint x="1599" y="198" as="targetPoint" />
          </mxGeometry>
        </mxCell>
        <mxCell id="FyBR0PGWzK8Zohx24WY4-30" value="" style="endArrow=none;html=1;rounded=0;" edge="1" parent="1">
          <mxGeometry width="50" height="50" relative="1" as="geometry">
            <mxPoint x="1099" y="198" as="sourcePoint" />
            <mxPoint x="2219" y="198" as="targetPoint" />
          </mxGeometry>
        </mxCell>
        <mxCell id="FyBR0PGWzK8Zohx24WY4-72" value="" style="edgeStyle=orthogonalEdgeStyle;rounded=0;orthogonalLoop=1;jettySize=auto;html=1;" edge="1" parent="1" source="FyBR0PGWzK8Zohx24WY4-31" target="FyBR0PGWzK8Zohx24WY4-57">
          <mxGeometry relative="1" as="geometry" />
        </mxCell>
        <mxCell id="FyBR0PGWzK8Zohx24WY4-31" value="HOME" style="rounded=1;whiteSpace=wrap;html=1;" vertex="1" parent="1">
          <mxGeometry x="1039" y="238" width="120" height="40" as="geometry" />
        </mxCell>
        <mxCell id="FyBR0PGWzK8Zohx24WY4-33" value="TRENDING" style="rounded=1;whiteSpace=wrap;html=1;" vertex="1" parent="1">
          <mxGeometry x="2159" y="238" width="120" height="40" as="geometry" />
        </mxCell>
        <mxCell id="FyBR0PGWzK8Zohx24WY4-34" value="DESTINATION" style="rounded=1;whiteSpace=wrap;html=1;" vertex="1" parent="1">
          <mxGeometry x="1999" y="238" width="120" height="40" as="geometry" />
        </mxCell>
        <mxCell id="FyBR0PGWzK8Zohx24WY4-35" value="ACTIVITY" style="rounded=1;whiteSpace=wrap;html=1;" vertex="1" parent="1">
          <mxGeometry x="1839" y="238" width="120" height="40" as="geometry" />
        </mxCell>
        <mxCell id="FyBR0PGWzK8Zohx24WY4-36" value="HOLIDAY" style="rounded=1;whiteSpace=wrap;html=1;" vertex="1" parent="1">
          <mxGeometry x="1679" y="238" width="120" height="40" as="geometry" />
        </mxCell>
        <mxCell id="FyBR0PGWzK8Zohx24WY4-37" value="FLIGHT" style="rounded=1;whiteSpace=wrap;html=1;" vertex="1" parent="1">
          <mxGeometry x="1199" y="238" width="120" height="40" as="geometry" />
        </mxCell>
        <mxCell id="FyBR0PGWzK8Zohx24WY4-38" value="CABS" style="rounded=1;whiteSpace=wrap;html=1;" vertex="1" parent="1">
          <mxGeometry x="1519" y="238" width="120" height="40" as="geometry" />
        </mxCell>
        <mxCell id="FyBR0PGWzK8Zohx24WY4-39" value="HOTELS" style="rounded=1;whiteSpace=wrap;html=1;" vertex="1" parent="1">
          <mxGeometry x="1359" y="238" width="120" height="40" as="geometry" />
        </mxCell>
        <mxCell id="FyBR0PGWzK8Zohx24WY4-40" value="" style="endArrow=classic;html=1;rounded=0;" edge="1" parent="1">
          <mxGeometry width="50" height="50" relative="1" as="geometry">
            <mxPoint x="1098.5" y="198" as="sourcePoint" />
            <mxPoint x="1098.5" y="238" as="targetPoint" />
          </mxGeometry>
        </mxCell>
        <mxCell id="FyBR0PGWzK8Zohx24WY4-41" value="" style="endArrow=classic;html=1;rounded=0;" edge="1" parent="1">
          <mxGeometry width="50" height="50" relative="1" as="geometry">
            <mxPoint x="1258.5" y="198" as="sourcePoint" />
            <mxPoint x="1258.5" y="238" as="targetPoint" />
          </mxGeometry>
        </mxCell>
        <mxCell id="FyBR0PGWzK8Zohx24WY4-42" value="" style="endArrow=classic;html=1;rounded=0;" edge="1" parent="1">
          <mxGeometry width="50" height="50" relative="1" as="geometry">
            <mxPoint x="1418.5" y="198" as="sourcePoint" />
            <mxPoint x="1418.5" y="238" as="targetPoint" />
          </mxGeometry>
        </mxCell>
        <mxCell id="FyBR0PGWzK8Zohx24WY4-43" value="" style="endArrow=classic;html=1;rounded=0;" edge="1" parent="1">
          <mxGeometry width="50" height="50" relative="1" as="geometry">
            <mxPoint x="1578.5" y="198" as="sourcePoint" />
            <mxPoint x="1578.5" y="238" as="targetPoint" />
          </mxGeometry>
        </mxCell>
        <mxCell id="FyBR0PGWzK8Zohx24WY4-44" value="" style="endArrow=classic;html=1;rounded=0;" edge="1" parent="1">
          <mxGeometry width="50" height="50" relative="1" as="geometry">
            <mxPoint x="1738.5" y="198" as="sourcePoint" />
            <mxPoint x="1738.5" y="238" as="targetPoint" />
          </mxGeometry>
        </mxCell>
        <mxCell id="FyBR0PGWzK8Zohx24WY4-45" value="" style="endArrow=classic;html=1;rounded=0;" edge="1" parent="1">
          <mxGeometry width="50" height="50" relative="1" as="geometry">
            <mxPoint x="1898.5" y="198" as="sourcePoint" />
            <mxPoint x="1898.5" y="238" as="targetPoint" />
          </mxGeometry>
        </mxCell>
        <mxCell id="FyBR0PGWzK8Zohx24WY4-46" value="" style="endArrow=classic;html=1;rounded=0;" edge="1" parent="1">
          <mxGeometry width="50" height="50" relative="1" as="geometry">
            <mxPoint x="2058.5" y="198" as="sourcePoint" />
            <mxPoint x="2058.5" y="238" as="targetPoint" />
          </mxGeometry>
        </mxCell>
        <mxCell id="FyBR0PGWzK8Zohx24WY4-47" value="" style="endArrow=classic;html=1;rounded=0;" edge="1" parent="1">
          <mxGeometry width="50" height="50" relative="1" as="geometry">
            <mxPoint x="2219" y="198" as="sourcePoint" />
            <mxPoint x="2219" y="238" as="targetPoint" />
          </mxGeometry>
        </mxCell>
        <mxCell id="FyBR0PGWzK8Zohx24WY4-49" value="" style="endArrow=classic;html=1;rounded=0;" edge="1" parent="1">
          <mxGeometry width="50" height="50" relative="1" as="geometry">
            <mxPoint x="1098.5" y="278" as="sourcePoint" />
            <mxPoint x="1098.5" y="318" as="targetPoint" />
          </mxGeometry>
        </mxCell>
        <mxCell id="FyBR0PGWzK8Zohx24WY4-50" value="" style="endArrow=classic;html=1;rounded=0;" edge="1" parent="1">
          <mxGeometry width="50" height="50" relative="1" as="geometry">
            <mxPoint x="1258.5" y="278" as="sourcePoint" />
            <mxPoint x="1258.5" y="318" as="targetPoint" />
          </mxGeometry>
        </mxCell>
        <mxCell id="FyBR0PGWzK8Zohx24WY4-51" value="" style="endArrow=classic;html=1;rounded=0;" edge="1" parent="1">
          <mxGeometry width="50" height="50" relative="1" as="geometry">
            <mxPoint x="1418.5" y="278" as="sourcePoint" />
            <mxPoint x="1418.5" y="318" as="targetPoint" />
          </mxGeometry>
        </mxCell>
        <mxCell id="FyBR0PGWzK8Zohx24WY4-52" value="" style="endArrow=classic;html=1;rounded=0;" edge="1" parent="1">
          <mxGeometry width="50" height="50" relative="1" as="geometry">
            <mxPoint x="1578.5" y="278" as="sourcePoint" />
            <mxPoint x="1578.5" y="318" as="targetPoint" />
          </mxGeometry>
        </mxCell>
        <mxCell id="FyBR0PGWzK8Zohx24WY4-53" value="" style="endArrow=classic;html=1;rounded=0;" edge="1" parent="1">
          <mxGeometry width="50" height="50" relative="1" as="geometry">
            <mxPoint x="1738.5" y="278" as="sourcePoint" />
            <mxPoint x="1738.5" y="318" as="targetPoint" />
          </mxGeometry>
        </mxCell>
        <mxCell id="FyBR0PGWzK8Zohx24WY4-54" value="" style="endArrow=classic;html=1;rounded=0;" edge="1" parent="1">
          <mxGeometry width="50" height="50" relative="1" as="geometry">
            <mxPoint x="1898.5" y="278" as="sourcePoint" />
            <mxPoint x="1898.5" y="318" as="targetPoint" />
          </mxGeometry>
        </mxCell>
        <mxCell id="FyBR0PGWzK8Zohx24WY4-55" value="" style="endArrow=classic;html=1;rounded=0;" edge="1" parent="1">
          <mxGeometry width="50" height="50" relative="1" as="geometry">
            <mxPoint x="2058.5" y="278" as="sourcePoint" />
            <mxPoint x="2058.5" y="318" as="targetPoint" />
          </mxGeometry>
        </mxCell>
        <mxCell id="FyBR0PGWzK8Zohx24WY4-56" value="" style="endArrow=classic;html=1;rounded=0;" edge="1" parent="1">
          <mxGeometry width="50" height="50" relative="1" as="geometry">
            <mxPoint x="2218.5" y="278" as="sourcePoint" />
            <mxPoint x="2218.5" y="318" as="targetPoint" />
          </mxGeometry>
        </mxCell>
        <mxCell id="FyBR0PGWzK8Zohx24WY4-57" value="" style="ellipse;whiteSpace=wrap;html=1;aspect=fixed;fillColor=#fff2cc;strokeColor=#d6b656;" vertex="1" parent="1">
          <mxGeometry x="1079" y="318" width="40" height="40" as="geometry" />
        </mxCell>
        <mxCell id="FyBR0PGWzK8Zohx24WY4-58" value="" style="ellipse;whiteSpace=wrap;html=1;aspect=fixed;fillColor=#fad9d5;strokeColor=#ae4132;" vertex="1" parent="1">
          <mxGeometry x="1399" y="318" width="40" height="40" as="geometry" />
        </mxCell>
        <mxCell id="FyBR0PGWzK8Zohx24WY4-59" value="" style="ellipse;whiteSpace=wrap;html=1;aspect=fixed;fillColor=#bac8d3;strokeColor=#23445d;" vertex="1" parent="1">
          <mxGeometry x="1559" y="318" width="40" height="40" as="geometry" />
        </mxCell>
        <mxCell id="FyBR0PGWzK8Zohx24WY4-60" value="" style="ellipse;whiteSpace=wrap;html=1;aspect=fixed;fillColor=#dae8fc;strokeColor=#6c8ebf;" vertex="1" parent="1">
          <mxGeometry x="1719" y="318" width="40" height="40" as="geometry" />
        </mxCell>
        <mxCell id="FyBR0PGWzK8Zohx24WY4-61" value="" style="ellipse;whiteSpace=wrap;html=1;aspect=fixed;fillColor=#d5e8d4;strokeColor=#82b366;" vertex="1" parent="1">
          <mxGeometry x="1879" y="318" width="40" height="40" as="geometry" />
        </mxCell>
        <mxCell id="FyBR0PGWzK8Zohx24WY4-62" value="" style="ellipse;whiteSpace=wrap;html=1;aspect=fixed;fillColor=#ffcc99;strokeColor=#36393d;" vertex="1" parent="1">
          <mxGeometry x="2039" y="318" width="40" height="40" as="geometry" />
        </mxCell>
        <mxCell id="FyBR0PGWzK8Zohx24WY4-63" value="" style="ellipse;whiteSpace=wrap;html=1;aspect=fixed;fillColor=#b1ddf0;strokeColor=#10739e;" vertex="1" parent="1">
          <mxGeometry x="2199" y="318" width="40" height="40" as="geometry" />
        </mxCell>
        <mxCell id="FyBR0PGWzK8Zohx24WY4-64" value="" style="ellipse;whiteSpace=wrap;html=1;aspect=fixed;fillColor=#e1d5e7;strokeColor=#9673a6;" vertex="1" parent="1">
          <mxGeometry x="1239" y="318" width="40" height="40" as="geometry" />
        </mxCell>
        <mxCell id="FyBR0PGWzK8Zohx24WY4-65" value="HOME" style="ellipse;whiteSpace=wrap;html=1;fillColor=#fff2cc;strokeColor=#d6b656;" vertex="1" parent="1">
          <mxGeometry x="1439" y="600" width="120" height="80" as="geometry" />
        </mxCell>
        <mxCell id="FyBR0PGWzK8Zohx24WY4-70" value="" style="endArrow=classic;html=1;rounded=0;exitX=0.5;exitY=1;exitDx=0;exitDy=0;" edge="1" parent="1" source="FyBR0PGWzK8Zohx24WY4-65">
          <mxGeometry width="50" height="50" relative="1" as="geometry">
            <mxPoint x="1290" y="480" as="sourcePoint" />
            <mxPoint x="1500" y="720" as="targetPoint" />
          </mxGeometry>
        </mxCell>
        <mxCell id="FyBR0PGWzK8Zohx24WY4-71" value="" style="endArrow=none;html=1;rounded=0;" edge="1" parent="1">
          <mxGeometry width="50" height="50" relative="1" as="geometry">
            <mxPoint x="920" y="720" as="sourcePoint" />
            <mxPoint x="2080" y="720" as="targetPoint" />
          </mxGeometry>
        </mxCell>
        <mxCell id="FyBR0PGWzK8Zohx24WY4-73" value="" style="endArrow=classic;html=1;rounded=0;" edge="1" parent="1">
          <mxGeometry width="50" height="50" relative="1" as="geometry">
            <mxPoint x="920" y="720" as="sourcePoint" />
            <mxPoint x="920" y="760" as="targetPoint" />
          </mxGeometry>
        </mxCell>
        <mxCell id="FyBR0PGWzK8Zohx24WY4-74" value="BANNERS" style="rounded=1;whiteSpace=wrap;html=1;" vertex="1" parent="1">
          <mxGeometry x="860" y="760" width="120" height="40" as="geometry" />
        </mxCell>
        <mxCell id="FyBR0PGWzK8Zohx24WY4-75" value="FEATURED&lt;div&gt;PACKAGE&lt;/div&gt;" style="rounded=1;whiteSpace=wrap;html=1;" vertex="1" parent="1">
          <mxGeometry x="1050" y="760" width="120" height="40" as="geometry" />
        </mxCell>
        <mxCell id="FyBR0PGWzK8Zohx24WY4-77" value="FEATURED&lt;div&gt;DESTINATION&lt;/div&gt;" style="rounded=1;whiteSpace=wrap;html=1;" vertex="1" parent="1">
          <mxGeometry x="1239" y="760" width="120" height="40" as="geometry" />
        </mxCell>
      </root>
    </mxGraphModel>
  </diagram>
</mxfile>
